<svg xmlns="http://www.w3.org/2000/svg" width="19" height="19" viewBox="0 0 19 19" fill="none">
  <path fill-rule="evenodd" clip-rule="evenodd" d="M14.168 0.0136719H5.16797C2.69319 0.0136719 0.667969 2.038 0.667969 4.51367V13.5137C0.667969 15.9884 2.69319 18.0137 5.16797 18.0137H14.168C16.6427 18.0137 18.668 15.9884 18.668 13.5137V4.51367C18.668 2.038 16.6427 0.0136719 14.168 0.0136719ZM9.66797 12.7635C7.59662 12.7635 5.91789 11.0841 5.91789 9.01367C5.91789 6.94232 7.59662 5.2636 9.66797 5.2636C11.7384 5.2636 13.418 6.94232 13.418 9.01367C13.418 11.0841 11.7384 12.7635 9.66797 12.7635ZM13.418 4.1386C13.418 4.75982 13.9211 5.2636 14.543 5.2636C15.1649 5.2636 15.668 4.75982 15.668 4.1386C15.668 3.51737 15.1649 3.0136 14.543 3.0136C13.9211 3.0136 13.418 3.51737 13.418 4.1386Z" fill="#222222"/>
</svg>