<svg xmlns="http://www.w3.org/2000/svg" width="18" height="19" viewBox="0 0 18 19" fill="none">
  <path d="M16.2 0.0136719H1.8C0.81 0.0136719 0 0.823672 0 1.81367V16.2137C0 17.2037 0.81 18.0137 1.8 18.0137H16.2C17.19 18.0137 18 17.2037 18 16.2137V1.81367C18 0.823672 17.19 0.0136719 16.2 0.0136719ZM5.4 15.3137H2.7V7.21367H5.4V15.3137ZM4.05 5.68367C3.15 5.68367 2.43 4.96367 2.43 4.06367C2.43 3.16367 3.15 2.44367 4.05 2.44367C4.95 2.44367 5.67 3.16367 5.67 4.06367C5.67 4.96367 4.95 5.68367 4.05 5.68367ZM15.3 15.3137H12.6V10.5437C12.6 9.82371 11.97 9.19367 11.25 9.19367C10.53 9.19367 9.9 9.82371 9.9 10.5437V15.3137H7.2V7.21367H9.9V8.29367C10.35 7.57367 11.34 7.03367 12.15 7.03367C13.86 7.03367 15.3 8.47367 15.3 10.1837V15.3137Z" fill="#023F3A"/>
</svg>