<svg width="172" height="41" viewBox="0 0 172 41" fill="none" xmlns="http://www.w3.org/2000/svg">
<g clip-path="url(#clip0_1221_129)">
<path d="M20 0.0136719C8.9543 0.0136719 0 8.96797 0 20.0137C11.0457 20.0137 20 11.0594 20 0.0136719Z" fill="#023F3A"/>
<path d="M20 40.0137C31.0457 40.0137 40 31.0594 40 20.0137C28.9543 20.0137 20 28.968 20 40.0137Z" fill="#023F3A"/>
<path d="M20 0.0136719C31.0457 0.0136719 40 8.96797 40 20.0137C28.9543 20.0137 20 11.0594 20 0.0136719Z" fill="#C13512"/>
<path d="M20 40.0137C8.9543 40.0137 -9.65645e-07 31.0594 0 20.0137C11.0457 20.0137 20 28.968 20 40.0137Z" fill="#C13512"/>
</g>
<path d="M62.415 11.8657V14.8037H54.849V19.4577H60.647V22.3437H54.849V30.0137H51.209V11.8657H62.415ZM64.0601 22.7597C64.0601 21.3037 64.3461 20.0123 64.9181 18.8857C65.5075 17.759 66.2961 16.8923 67.2841 16.2857C68.2895 15.679 69.4075 15.3757 70.6381 15.3757C71.7128 15.3757 72.6488 15.5923 73.4461 16.0257C74.2608 16.459 74.9108 17.005 75.3961 17.6637V15.6097H79.0621V30.0137H75.3961V27.9077C74.9281 28.5837 74.2781 29.147 73.4461 29.5977C72.6315 30.031 71.6868 30.2477 70.6121 30.2477C69.3988 30.2477 68.2895 29.9357 67.2841 29.3117C66.2961 28.6877 65.5075 27.8123 64.9181 26.6857C64.3461 25.5417 64.0601 24.233 64.0601 22.7597ZM75.3961 22.8117C75.3961 21.9277 75.2228 21.1737 74.8761 20.5497C74.5295 19.9083 74.0615 19.423 73.4721 19.0937C72.8828 18.747 72.2501 18.5737 71.5741 18.5737C70.8981 18.5737 70.2741 18.7383 69.7021 19.0677C69.1301 19.397 68.6621 19.8823 68.2981 20.5237C67.9515 21.1477 67.7781 21.893 67.7781 22.7597C67.7781 23.6263 67.9515 24.389 68.2981 25.0477C68.6621 25.689 69.1301 26.183 69.7021 26.5297C70.2915 26.8763 70.9155 27.0497 71.5741 27.0497C72.2501 27.0497 72.8828 26.885 73.4721 26.5557C74.0615 26.209 74.5295 25.7237 74.8761 25.0997C75.2228 24.4583 75.3961 23.6957 75.3961 22.8117ZM86.2572 17.8457C86.7252 17.083 87.3319 16.485 88.0772 16.0517C88.8399 15.6183 89.7066 15.4017 90.6772 15.4017V19.2237H89.7152C88.5712 19.2237 87.7046 19.4923 87.1152 20.0297C86.5432 20.567 86.2572 21.503 86.2572 22.8377V30.0137H82.6172V15.6097H86.2572V17.8457ZM111.017 15.4017C112.785 15.4017 114.206 15.9477 115.281 17.0397C116.373 18.1143 116.919 19.6223 116.919 21.5637V30.0137H113.279V22.0577C113.279 20.931 112.993 20.073 112.421 19.4837C111.849 18.877 111.069 18.5737 110.081 18.5737C109.093 18.5737 108.304 18.877 107.715 19.4837C107.143 20.073 106.857 20.931 106.857 22.0577V30.0137H103.217V22.0577C103.217 20.931 102.931 20.073 102.359 19.4837C101.787 18.877 101.007 18.5737 100.019 18.5737C99.0136 18.5737 98.2163 18.877 97.627 19.4837C97.055 20.073 96.769 20.931 96.769 22.0577V30.0137H93.129V15.6097H96.769V17.3517C97.237 16.745 97.835 16.2683 98.563 15.9217C99.3083 15.575 100.123 15.4017 101.007 15.4017C102.134 15.4017 103.139 15.6443 104.023 16.1297C104.907 16.5977 105.592 17.2737 106.077 18.1577C106.545 17.3257 107.221 16.6583 108.105 16.1557C109.006 15.653 109.977 15.4017 111.017 15.4017ZM122.219 13.8937C121.578 13.8937 121.04 13.6943 120.607 13.2957C120.191 12.8797 119.983 12.3683 119.983 11.7617C119.983 11.155 120.191 10.6523 120.607 10.2537C121.04 9.83767 121.578 9.62967 122.219 9.62967C122.86 9.62967 123.389 9.83767 123.805 10.2537C124.238 10.6523 124.455 11.155 124.455 11.7617C124.455 12.3683 124.238 12.8797 123.805 13.2957C123.389 13.6943 122.86 13.8937 122.219 13.8937ZM124.013 15.6097V30.0137H120.373V15.6097H124.013ZM135.591 15.4017C137.307 15.4017 138.694 15.9477 139.751 17.0397C140.809 18.1143 141.337 19.6223 141.337 21.5637V30.0137H137.697V22.0577C137.697 20.9137 137.411 20.0383 136.839 19.4317C136.267 18.8077 135.487 18.4957 134.499 18.4957C133.494 18.4957 132.697 18.8077 132.107 19.4317C131.535 20.0383 131.249 20.9137 131.249 22.0577V30.0137H127.609V15.6097H131.249V17.4037C131.735 16.7797 132.35 16.2943 133.095 15.9477C133.858 15.5837 134.69 15.4017 135.591 15.4017ZM151.195 30.2477C149.808 30.2477 148.56 29.9443 147.451 29.3377C146.342 28.7137 145.466 27.8383 144.825 26.7117C144.201 25.585 143.889 24.285 143.889 22.8117C143.889 21.3383 144.21 20.0383 144.851 18.9117C145.51 17.785 146.402 16.9183 147.529 16.3117C148.656 15.6877 149.912 15.3757 151.299 15.3757C152.686 15.3757 153.942 15.6877 155.069 16.3117C156.196 16.9183 157.08 17.785 157.721 18.9117C158.38 20.0383 158.709 21.3383 158.709 22.8117C158.709 24.285 158.371 25.585 157.695 26.7117C157.036 27.8383 156.135 28.7137 154.991 29.3377C153.864 29.9443 152.599 30.2477 151.195 30.2477ZM151.195 27.0757C151.854 27.0757 152.469 26.9197 153.041 26.6077C153.63 26.2783 154.098 25.793 154.445 25.1517C154.792 24.5103 154.965 23.7303 154.965 22.8117C154.965 21.4423 154.601 20.3937 153.873 19.6657C153.162 18.9203 152.287 18.5477 151.247 18.5477C150.207 18.5477 149.332 18.9203 148.621 19.6657C147.928 20.3937 147.581 21.4423 147.581 22.8117C147.581 24.181 147.919 25.2383 148.595 25.9837C149.288 26.7117 150.155 27.0757 151.195 27.0757Z" fill="#222222"/>
<defs>
<clipPath id="clip0_1221_129">
<rect width="172" height="40" fill="white" transform="translate(0 0.0136719)"/>
</clipPath>
</defs>
</svg>
